<svg xmlns="http://www.w3.org/2000/svg" class="thumb" viewBox="0 0 1178 353" width="1178" height="353" xmlns:xlink="http://www.w3.org/1999/xlink" xmlns:inkscape="http://www.inkscape.org/namespaces/inkscape" xmlns:sodipodi="http://sodipodi.sourceforge.net/DTD/sodipodi-0.dtd"><defs /><g transform="matrix(6.3105 0 0 0.7637 2.4258 200.766)"><svg class="thumb" viewBox="-5.013 -5 186.769 186.769" width="186.769" height="186.769"><defs><linearGradient id="Sjcy02ctal22" x1="0.5" y1="1" x2="0.5" y2="0"><stop stop-color="rgb(23, 97, 160)" stop-opacity="0.63" offset="53.08%" /><stop stop-color="rgb(165, 95, 193)" offset="98.1%" /><stop stop-color="rgb(165, 95, 193)" offset="100%" /></linearGradient></defs><rect fill="url(#Sjcy02ctal22)" x="-0.013" y="0" width="176.769" height="176.769" /></svg></g><g transform="matrix(0 -3.1564 3.1564 0 618.966 79.3887)"><svg viewBox="60.322 55.667 16.524 15.191" width="16.524" height="15.191"><defs><linearGradient id="Sjcy02ctal29" x1="0" y1="0.5" x2="1" y2="0.5"><stop stop-color="rgb(23, 97, 160)" offset="0%" /><stop stop-color="rgb(23, 97, 160)" offset="100%" /></linearGradient></defs><path fill="url(#Sjcy02ctal29)" d="M 71.846 60.667 l -5.228 1.644 c -0.376 1.201 -0.808 2.388 -1.296 3.547 C 67.861 64.665 70.096 62.889 71.846 60.667 Z" /></svg></g><g transform="matrix(0 -3.1564 3.1564 0 427.178 224.845)"><svg viewBox="14.265 -5 71.471 110" width="71.471" height="110"><defs><linearGradient id="Sjcy02ctal2f" x1="0" y1="0.5" x2="1" y2="0.5"><stop stop-color="rgb(165, 95, 193)" offset="30.33%" /><stop stop-color="rgb(23, 97, 160)" offset="100%" /></linearGradient></defs><path fill="url(#Sjcy02ctal2f)" d="M 67.617 29.662 L 20.792 0 l -1.527 2.411 l 4.545 2.877 c 4.371 6.753 7.518 14.657 9.501 23.066 L 20.46 24.268 l -0.864 2.719 l 14.455 4.593 c 1.093 5.554 1.659 11.289 1.736 17.042 H 20.03 v 2.854 h 15.757 c -0.087 5.775 -0.666 11.532 -1.774 17.105 l -14.41 4.525 l 0.852 2.724 l 12.822 -4.028 c -1.986 8.353 -5.12 16.194 -9.466 22.905 l -4.545 2.88 L 20.792 100 l 46.826 -29.665 c 8.46 -5.36 13.118 -12.584 13.118 -20.336 C 80.734 42.246 76.077 35.023 67.617 29.662 Z M 77.777 48.62 H 75.65 c -0.06 -1.141 -0.203 -2.266 -0.471 -3.353 l -7.554 -2.401 c 0.383 1.884 0.582 3.809 0.679 5.754 h -1.15 c -0.08 -2.289 -0.313 -4.552 -0.774 -6.76 l 10.794 3.433 C 77.498 46.382 77.682 47.495 77.777 48.62 Z M 66.091 32.072 c 4.423 2.803 7.65 6.139 9.61 9.755 l -2.121 -0.672 c -2.003 -3.771 -5.305 -6.821 -9.482 -8.409 c 1.016 1.996 1.853 4.066 2.521 6.194 l -1.104 -0.351 c -1.035 -3.42 -2.564 -6.676 -4.494 -9.733 L 66.091 32.072 Z M 62.568 40.648 c 0.061 0.215 0.086 0.437 0.138 0.656 l -8.987 -2.861 c 0.624 3.353 0.958 6.763 1.064 10.18 h -1.115 c -0.077 -3.761 -0.479 -7.502 -1.188 -11.183 L 62.568 40.648 Z M 53.664 51.475 h 10.104 c -0.006 0.201 -0.045 0.397 -0.059 0.598 h -8.881 c -0.064 3.459 -0.426 6.9 -1.025 10.296 l -1.369 0.431 C 53.163 59.075 53.581 55.282 53.664 51.475 Z M 51.938 23.107 c 2.727 2.54 4.943 5.416 6.754 8.486 c -2.198 -0.122 -4.354 0.145 -6.375 0.775 c 0.209 0.726 0.377 1.465 0.558 2.202 l -1.052 -0.334 c -1.279 -5.213 -3.211 -10.231 -5.786 -14.869 L 51.938 23.107 Z M 45.915 35.961 c -2.076 1.794 -3.773 4.041 -4.866 6.67 c 0.154 1.993 0.228 3.992 0.27 5.991 h -1.164 c -0.071 -5.239 -0.55 -10.453 -1.417 -15.551 l 9.54 3.035 c 0.048 0.215 0.083 0.434 0.131 0.649 L 45.915 35.961 Z M 40.151 51.475 h 9.652 c -0.003 0.198 -0.022 0.397 -0.029 0.598 h -8.46 c -0.019 1.578 -0.019 3.156 -0.112 4.729 c 1.34 3.034 3.526 5.639 6.297 7.547 l -8.792 2.762 C 39.589 61.984 40.074 56.739 40.151 51.475 Z M 31.582 10.212 l 6.284 3.982 c 4.407 5.448 7.553 11.838 9.53 18.637 l -9.235 -2.935 C 36.734 22.934 34.52 16.293 31.582 10.212 Z M 31.582 89.785 c 2.909 -6.027 5.111 -12.605 6.538 -19.501 l 9.215 -2.894 c -1.983 6.715 -5.114 13.023 -9.469 18.414 L 31.582 89.785 Z M 46.008 80.646 c 2.54 -4.57 4.461 -9.508 5.744 -14.646 l 9.63 -3.024 c -0.151 0.39 -0.354 0.756 -0.515 1.139 l -7.938 2.49 c -0.023 0.098 -0.043 0.193 -0.064 0.289 c 0.344 0.098 0.681 0.2 1.031 0.277 c 1.797 0.389 3.586 0.488 5.326 0.337 c -1.885 3.414 -4.295 6.593 -7.283 9.384 L 46.008 80.646 Z M 66.091 67.925 l -5.071 3.214 c 1.873 -2.967 3.388 -6.119 4.416 -9.434 l 10.049 -3.153 C 73.503 62.02 70.355 65.223 66.091 67.925 Z M 77.074 55.061 l -2.557 0.801 c 0.31 -0.811 0.586 -1.639 0.774 -2.517 c 0.091 -0.425 0.14 -0.849 0.199 -1.272 h -7.154 c -0.084 2.016 -0.325 3.998 -0.694 5.949 l -1.338 0.422 c 0.495 -2.272 0.756 -4.606 0.844 -6.969 h 10.623 C 77.659 52.686 77.453 53.885 77.074 55.061 Z" /></svg></g><g transform="matrix(1.245 0 0 1.245 84.9689 185.636)"><svg style="overflow: visible;" width="688.769" height="135"><defs><linearGradient id="Sjcy02ctal2n" gradientUnits="userSpaceOnUse" x1="0" y1="67.5" x2="688.77" y2="67.5"><stop stop-color="rgb(255, 255, 255)" offset="0%" /><stop stop-color="rgb(255, 255, 255)" offset="100%" /></linearGradient></defs><path fill="none" d="M -50 105 C 178.711 104 218.711 104 447.422 105" /><text style="font-family: Cinzel; font-size: 100px; text-anchor: middle;" fill="url(#Sjcy02ctal2n)" x="407" y="0" dy="87.75">FinPricing®</text></svg></g></svg>